<?xml version="1.0" encoding="utf-8"?>
<!-- Generator: Adobe Illustrator 16.0.3, SVG Export Plug-In . SVG Version: 6.00 Build 0)  -->
<!DOCTYPE svg PUBLIC "-//W3C//DTD SVG 1.1//EN" "http://www.w3.org/Graphics/SVG/1.1/DTD/svg11.dtd">
<svg version="1.1" id="Calque_1" xmlns="http://www.w3.org/2000/svg" xmlns:xlink="http://www.w3.org/1999/xlink" x="0px" y="0px"
	 width="247.484px" height="87.094px" viewBox="0 0 247.484 87.094" enable-background="new 0 0 247.484 87.094"
	 xml:space="preserve">
<g>
	<path fill="#374F5A" d="M26.734,0.063c0,0-1.668,0.799-4.41,2.46c-1.373,0.824-2.996,1.893-4.792,3.184
		c-1.792,1.298-3.726,2.872-5.661,4.729c-0.959,0.938-1.921,1.946-2.813,3.061c-0.905,1.103-1.784,2.28-2.534,3.567
		c-1.55,2.545-2.592,5.509-2.87,8.623c-0.058,0.387-0.028,0.784-0.049,1.177l-0.015,0.591l0.04,0.568
		c0.028,0.435,0.047,0.902,0.126,1.219c0.071,0.355,0.094,0.698,0.216,1.077c0.369,1.494,1.028,2.911,1.918,4.245
		c1.797,2.676,4.545,4.915,7.424,7.11c2.857,2.239,5.925,4.468,8.571,7.313c2.68,2.782,4.655,6.524,5.131,10.336
		c0.143,0.948,0.162,1.887,0.177,2.814l-0.003,0.168l-0.005,0.079l-0.011,0.158l-0.022,0.315l-0.043,0.628
		c-0.065,0.473-0.157,0.977-0.241,1.455c-0.399,1.822-1.095,3.465-1.917,4.945c-1.646,2.971-3.777,5.278-5.848,7.203
		c-2.071,1.937-4.149,3.462-6.03,4.73c-1.876,1.277-3.593,2.252-5.014,3.03c-2.852,1.542-4.575,2.214-4.575,2.214
		s1.565-0.985,4.148-2.885c2.558-1.917,6.207-4.731,9.837-8.704c1.789-1.993,3.551-4.312,4.827-6.956
		c0.628-1.321,1.112-2.738,1.331-4.179c0.037-0.339,0.074-0.679,0.11-1.021c0.011-0.39,0.021-0.78,0.032-1.174
		c-0.046-0.765-0.087-1.534-0.234-2.288c-0.266-1.511-0.78-2.978-1.548-4.352c-0.77-1.371-1.771-2.658-2.921-3.88
		c-2.318-2.441-5.249-4.537-8.197-6.79c-2.905-2.29-5.967-4.762-8.198-8.144c-1.112-1.675-1.932-3.593-2.325-5.563
		c-0.204-0.96-0.33-2.147-0.326-2.936l-0.018-0.741l0.042-0.712c0.04-0.473,0.032-0.947,0.115-1.412
		c0.438-3.752,1.958-7.144,3.861-9.871c1.871-2.777,4.143-4.941,6.333-6.73c2.195-1.797,4.375-3.185,6.355-4.3
		c1.972-1.13,3.765-1.964,5.254-2.606c1.485-0.651,2.691-1.065,3.508-1.35C26.291,0.189,26.734,0.063,26.734,0.063z"/>
</g>
<g>
	<path fill="#0089CF" d="M1.776,44.979c0,0,0.805,0.194,2.159,0.708c1.354,0.511,3.261,1.348,5.401,2.666
		c1.062,0.67,2.21,1.424,3.312,2.387c1.114,0.94,2.258,2.014,3.236,3.33c0.982,1.299,1.94,2.764,2.492,4.467
		c0.563,1.682,0.897,3.525,0.759,5.357c-0.174,1.81-0.59,3.613-1.375,5.169c-0.697,1.606-1.69,2.985-2.674,4.253
		c-0.469,0.66-1.033,1.204-1.553,1.769c-0.514,0.572-1.066,1.07-1.61,1.548c-0.547,0.471-1.039,0.977-1.586,1.375
		c-0.541,0.403-1.063,0.793-1.564,1.168c-0.979,0.774-1.989,1.32-2.831,1.872c-0.837,0.558-1.633,0.941-2.268,1.283
		c-1.278,0.673-2.021,1.023-2.021,1.023s0.603-0.572,1.682-1.514c0.537-0.473,1.203-1.027,1.92-1.712
		C5.614,79.792,6,79.434,6.405,79.056c0.411-0.37,0.842-0.757,1.256-1.197c0.851-0.857,1.778-1.771,2.669-2.802
		c0.462-0.502,0.928-1.022,1.34-1.599c0.407-0.578,0.928-1.095,1.295-1.721c0.827-1.191,1.572-2.485,2.126-3.84
		c0.616-1.343,0.914-2.781,1.05-4.206c0.145-1.433-0.093-2.868-0.51-4.231c-0.424-1.365-1.085-2.668-1.885-3.847
		c-0.791-1.183-1.691-2.272-2.624-3.244c-0.928-0.977-1.89-1.841-2.793-2.627c-0.923-0.763-1.787-1.457-2.58-2.043
		c-0.795-0.58-1.497-1.087-2.089-1.485C2.479,45.414,1.776,44.979,1.776,44.979z"/>
</g>
<g>
	<path fill="#0089CF" d="M25.484,5.188c0,0-0.702,0.503-1.872,1.425c-0.586,0.46-1.279,1.04-2.062,1.708
		c-0.783,0.668-1.625,1.464-2.531,2.329c-0.88,0.892-1.819,1.866-2.718,2.956c-0.906,1.084-1.772,2.289-2.541,3.581
		c-0.411,0.634-0.717,1.329-1.065,2.009c-0.267,0.712-0.588,1.412-0.788,2.15c-0.263,0.723-0.365,1.484-0.517,2.235
		c-0.057,0.763-0.161,1.524-0.093,2.29c-0.031,0.767,0.139,1.524,0.226,2.284c0.079,0.375,0.194,0.745,0.28,1.119
		c0.088,0.374,0.177,0.748,0.333,1.104c0.277,0.72,0.52,1.449,0.889,2.128c0.168,0.346,0.336,0.69,0.502,1.032
		c0.202,0.327,0.402,0.651,0.601,0.973c0.199,0.323,0.397,0.643,0.593,0.959c0.223,0.303,0.443,0.604,0.661,0.9
		c0.438,0.594,0.834,1.205,1.319,1.728c0.462,0.543,0.911,1.072,1.346,1.583c0.466,0.491,0.916,0.964,1.349,1.419
		c0.85,0.93,1.721,1.698,2.458,2.423c0.737,0.726,1.414,1.327,1.975,1.819c1.115,0.993,1.74,1.596,1.74,1.596
		s-0.767-0.382-2.088-1.111c-0.661-0.363-1.473-0.797-2.335-1.399c-0.874-0.586-1.901-1.203-2.899-2.044
		c-0.514-0.406-1.048-0.828-1.602-1.266c-0.516-0.487-1.049-0.991-1.597-1.509c-0.566-0.502-1.063-1.109-1.602-1.702
		c-0.267-0.299-0.54-0.6-0.796-0.919c-0.239-0.336-0.481-0.676-0.725-1.018c-0.243-0.345-0.487-0.692-0.733-1.042
		c-0.214-0.375-0.43-0.753-0.646-1.134c-0.205-0.389-0.461-0.75-0.625-1.17c-0.172-0.414-0.345-0.831-0.519-1.249
		c-0.19-0.411-0.315-0.853-0.437-1.298c-0.124-0.444-0.26-0.886-0.358-1.339c-0.126-0.923-0.329-1.843-0.306-2.788
		c-0.055-0.942,0.078-1.875,0.176-2.803c0.193-0.909,0.351-1.829,0.675-2.683c0.547-1.747,1.436-3.308,2.391-4.698
		c0.934-1.416,2.037-2.612,3.122-3.674c1.067-1.084,2.2-1.959,3.246-2.748c2.115-1.548,4.025-2.584,5.389-3.233
		C24.664,5.458,25.484,5.188,25.484,5.188z"/>
</g>
<text transform="matrix(1 0 0 1 39.8613 63.7783)" fill="#0089CF" font-family="'MyriadPro-Regular'" font-size="26.3129">SAINT-LAURENT</text>
<text transform="matrix(1 0 0 1 39.8613 41.3408)" fill="#0089CF" font-family="'MyriadPro-Regular'" font-size="26.3129">INSTITUT</text>
</svg>
